<?xml version="1.0" encoding="UTF-8" standalone="no"?>
<!DOCTYPE svg PUBLIC "-//W3C//DTD SVG 1.1//EN" "http://www.w3.org/Graphics/SVG/1.1/DTD/svg11.dtd">
<svg width="100%" height="100%" viewBox="0 0 320 180" version="1.1" xmlns="http://www.w3.org/2000/svg" xmlns:xlink="http://www.w3.org/1999/xlink" xml:space="preserve" xmlns:serif="http://www.serif.com/" style="fill-rule:evenodd;clip-rule:evenodd;">
    <g transform="matrix(1,0,0,1,-6.5,30)">
        <g transform="matrix(0.165764,0,0,0.165764,25.026,15.3869)">
            <rect x="0" y="0" width="800" height="500" style="fill:rgb(116,172,223);"/>
        </g>
        <g transform="matrix(0.165764,0,0,0.165764,25.026,15.3869)">
            <rect x="0" y="166.67" width="800" height="166.67" style="fill:white;"/>
        </g>
        <g id="ray1" transform="matrix(0.165764,0,0,0.165764,25.026,15.3869)">
            <path d="M396.84,251.31L425.294,313.302C425.294,313.302 425.784,314.487 426.574,314.161C427.364,313.834 426.873,312.649 426.873,312.649L403.158,248.693M402.478,272.813C402.131,282.241 407.93,287.426 407.172,295.845C406.415,304.265 411.039,309.025 412.112,312.299C413.185,315.573 410.952,317.531 411.914,317.997C412.877,318.463 414.984,315.877 414.297,311.222C413.61,306.567 410.077,305.185 410.907,294.902C411.737,284.619 406.701,282.224 407.927,272.844" style="fill:rgb(246,180,14);fill-rule:nonzero;stroke:rgb(133,52,10);stroke-width:1.11px;"/>
        </g>
        <g id="ray11" serif:id="ray1" transform="matrix(0.153146,0.0634352,-0.0634352,0.153146,45.932,-6.83268)">
            <path d="M396.84,251.31L425.294,313.302C425.294,313.302 425.784,314.487 426.574,314.161C427.364,313.834 426.873,312.649 426.873,312.649L403.158,248.693M402.478,272.813C402.131,282.241 407.93,287.426 407.172,295.845C406.415,304.265 411.039,309.025 412.112,312.299C413.185,315.573 410.952,317.531 411.914,317.997C412.877,318.463 414.984,315.877 414.297,311.222C413.61,306.567 410.077,305.185 410.907,294.902C411.737,284.619 406.701,282.224 407.927,272.844" style="fill:rgb(246,180,14);fill-rule:nonzero;stroke:rgb(133,52,10);stroke-width:1.11px;"/>
        </g>
        <g id="ray12" serif:id="ray1" transform="matrix(0.117213,0.117213,-0.117213,0.117213,73.7497,-19.3605)">
            <path d="M396.84,251.31L425.294,313.302C425.294,313.302 425.784,314.487 426.574,314.161C427.364,313.834 426.873,312.649 426.873,312.649L403.158,248.693M402.478,272.813C402.131,282.241 407.93,287.426 407.172,295.845C406.415,304.265 411.039,309.025 412.112,312.299C413.185,315.573 410.952,317.531 411.914,317.997C412.877,318.463 414.984,315.877 414.297,311.222C413.61,306.567 410.077,305.185 410.907,294.902C411.737,284.619 406.701,282.224 407.927,272.844" style="fill:rgb(246,180,14);fill-rule:nonzero;stroke:rgb(133,52,10);stroke-width:1.11px;"/>
        </g>
        <g id="ray13" serif:id="ray1" transform="matrix(0.0634352,0.153146,-0.153146,0.0634352,104.244,-20.2893)">
            <path d="M396.84,251.31L425.294,313.302C425.294,313.302 425.784,314.487 426.574,314.161C427.364,313.834 426.873,312.649 426.873,312.649L403.158,248.693M402.478,272.813C402.131,282.241 407.93,287.426 407.172,295.845C406.415,304.265 411.039,309.025 412.112,312.299C413.185,315.573 410.952,317.531 411.914,317.997C412.877,318.463 414.984,315.877 414.297,311.222C413.61,306.567 410.077,305.185 410.907,294.902C411.737,284.619 406.701,282.224 407.927,272.844" style="fill:rgb(246,180,14);fill-rule:nonzero;stroke:rgb(133,52,10);stroke-width:1.11px;"/>
        </g>
        <g id="ray2" transform="matrix(0.165764,0,0,0.165764,25.026,15.3869)">
            <path d="M404.31,274.41C404.763,283.464 409.897,287.473 408.889,295.724C411.102,289.199 405.765,284.141 406.069,274.504M398.42,250.747L417.907,293.324L401.578,249.437" style="fill:rgb(133,52,10);fill-rule:nonzero;"/>
        </g>
        <g id="ray21" serif:id="ray2" transform="matrix(0.153146,0.0634352,-0.0634352,0.153146,45.932,-6.83268)">
            <path d="M404.31,274.41C404.763,283.464 409.897,287.473 408.889,295.724C411.102,289.199 405.765,284.141 406.069,274.504M398.42,250.747L417.907,293.324L401.578,249.437" style="fill:rgb(133,52,10);fill-rule:nonzero;"/>
        </g>
        <g id="ray22" serif:id="ray2" transform="matrix(0.117213,0.117213,-0.117213,0.117213,73.7497,-19.3605)">
            <path d="M404.31,274.41C404.763,283.464 409.897,287.473 408.889,295.724C411.102,289.199 405.765,284.141 406.069,274.504M398.42,250.747L417.907,293.324L401.578,249.437" style="fill:rgb(133,52,10);fill-rule:nonzero;"/>
        </g>
        <g id="ray23" serif:id="ray2" transform="matrix(0.0634352,0.153146,-0.153146,0.0634352,104.244,-20.2893)">
            <path d="M404.31,274.41C404.763,283.464 409.897,287.473 408.889,295.724C411.102,289.199 405.765,284.141 406.069,274.504M398.42,250.747L417.907,293.324L401.578,249.437" style="fill:rgb(133,52,10);fill-rule:nonzero;"/>
        </g>
        <g id="ray14" serif:id="ray1" transform="matrix(-6.3464e-17,0.165764,-0.165764,-6.3464e-17,132.773,-9.47774)">
            <path d="M396.84,251.31L425.294,313.302C425.294,313.302 425.784,314.487 426.574,314.161C427.364,313.834 426.873,312.649 426.873,312.649L403.158,248.693M402.478,272.813C402.131,282.241 407.93,287.426 407.172,295.845C406.415,304.265 411.039,309.025 412.112,312.299C413.185,315.573 410.952,317.531 411.914,317.997C412.877,318.463 414.984,315.877 414.297,311.222C413.61,306.567 410.077,305.185 410.907,294.902C411.737,284.619 406.701,282.224 407.927,272.844" style="fill:rgb(246,180,14);fill-rule:nonzero;stroke:rgb(133,52,10);stroke-width:1.11px;"/>
        </g>
        <g id="ray15" serif:id="ray1" transform="matrix(-0.0634352,0.153146,-0.153146,-0.0634352,154.992,11.4283)">
            <path d="M396.84,251.31L425.294,313.302C425.294,313.302 425.784,314.487 426.574,314.161C427.364,313.834 426.873,312.649 426.873,312.649L403.158,248.693M402.478,272.813C402.131,282.241 407.93,287.426 407.172,295.845C406.415,304.265 411.039,309.025 412.112,312.299C413.185,315.573 410.952,317.531 411.914,317.997C412.877,318.463 414.984,315.877 414.297,311.222C413.61,306.567 410.077,305.185 410.907,294.902C411.737,284.619 406.701,282.224 407.927,272.844" style="fill:rgb(246,180,14);fill-rule:nonzero;stroke:rgb(133,52,10);stroke-width:1.11px;"/>
        </g>
        <g id="ray16" serif:id="ray1" transform="matrix(-0.117213,0.117213,-0.117213,-0.117213,167.52,39.246)">
            <path d="M396.84,251.31L425.294,313.302C425.294,313.302 425.784,314.487 426.574,314.161C427.364,313.834 426.873,312.649 426.873,312.649L403.158,248.693M402.478,272.813C402.131,282.241 407.93,287.426 407.172,295.845C406.415,304.265 411.039,309.025 412.112,312.299C413.185,315.573 410.952,317.531 411.914,317.997C412.877,318.463 414.984,315.877 414.297,311.222C413.61,306.567 410.077,305.185 410.907,294.902C411.737,284.619 406.701,282.224 407.927,272.844" style="fill:rgb(246,180,14);fill-rule:nonzero;stroke:rgb(133,52,10);stroke-width:1.11px;"/>
        </g>
        <g id="ray17" serif:id="ray1" transform="matrix(-0.153146,0.0634352,-0.0634352,-0.153146,168.449,69.7404)">
            <path d="M396.84,251.31L425.294,313.302C425.294,313.302 425.784,314.487 426.574,314.161C427.364,313.834 426.873,312.649 426.873,312.649L403.158,248.693M402.478,272.813C402.131,282.241 407.93,287.426 407.172,295.845C406.415,304.265 411.039,309.025 412.112,312.299C413.185,315.573 410.952,317.531 411.914,317.997C412.877,318.463 414.984,315.877 414.297,311.222C413.61,306.567 410.077,305.185 410.907,294.902C411.737,284.619 406.701,282.224 407.927,272.844" style="fill:rgb(246,180,14);fill-rule:nonzero;stroke:rgb(133,52,10);stroke-width:1.11px;"/>
        </g>
        <g id="ray24" serif:id="ray2" transform="matrix(-6.3464e-17,0.165764,-0.165764,-6.3464e-17,132.773,-9.47774)">
            <path d="M404.31,274.41C404.763,283.464 409.897,287.473 408.889,295.724C411.102,289.199 405.765,284.141 406.069,274.504M398.42,250.747L417.907,293.324L401.578,249.437" style="fill:rgb(133,52,10);fill-rule:nonzero;"/>
        </g>
        <g id="ray25" serif:id="ray2" transform="matrix(-0.0634352,0.153146,-0.153146,-0.0634352,154.992,11.4283)">
            <path d="M404.31,274.41C404.763,283.464 409.897,287.473 408.889,295.724C411.102,289.199 405.765,284.141 406.069,274.504M398.42,250.747L417.907,293.324L401.578,249.437" style="fill:rgb(133,52,10);fill-rule:nonzero;"/>
        </g>
        <g id="ray26" serif:id="ray2" transform="matrix(-0.117213,0.117213,-0.117213,-0.117213,167.52,39.246)">
            <path d="M404.31,274.41C404.763,283.464 409.897,287.473 408.889,295.724C411.102,289.199 405.765,284.141 406.069,274.504M398.42,250.747L417.907,293.324L401.578,249.437" style="fill:rgb(133,52,10);fill-rule:nonzero;"/>
        </g>
        <g id="ray27" serif:id="ray2" transform="matrix(-0.153146,0.0634352,-0.0634352,-0.153146,168.449,69.7404)">
            <path d="M404.31,274.41C404.763,283.464 409.897,287.473 408.889,295.724C411.102,289.199 405.765,284.141 406.069,274.504M398.42,250.747L417.907,293.324L401.578,249.437" style="fill:rgb(133,52,10);fill-rule:nonzero;"/>
        </g>
        <g id="ray18" serif:id="ray1" transform="matrix(-0.165764,-1.26928e-16,1.26928e-16,-0.165764,157.637,98.269)">
            <path d="M396.84,251.31L425.294,313.302C425.294,313.302 425.784,314.487 426.574,314.161C427.364,313.834 426.873,312.649 426.873,312.649L403.158,248.693M402.478,272.813C402.131,282.241 407.93,287.426 407.172,295.845C406.415,304.265 411.039,309.025 412.112,312.299C413.185,315.573 410.952,317.531 411.914,317.997C412.877,318.463 414.984,315.877 414.297,311.222C413.61,306.567 410.077,305.185 410.907,294.902C411.737,284.619 406.701,282.224 407.927,272.844" style="fill:rgb(246,180,14);fill-rule:nonzero;stroke:rgb(133,52,10);stroke-width:1.11px;"/>
        </g>
        <g id="ray19" serif:id="ray1" transform="matrix(-0.153146,-0.0634352,0.0634352,-0.153146,136.731,120.489)">
            <path d="M396.84,251.31L425.294,313.302C425.294,313.302 425.784,314.487 426.574,314.161C427.364,313.834 426.873,312.649 426.873,312.649L403.158,248.693M402.478,272.813C402.131,282.241 407.93,287.426 407.172,295.845C406.415,304.265 411.039,309.025 412.112,312.299C413.185,315.573 410.952,317.531 411.914,317.997C412.877,318.463 414.984,315.877 414.297,311.222C413.61,306.567 410.077,305.185 410.907,294.902C411.737,284.619 406.701,282.224 407.927,272.844" style="fill:rgb(246,180,14);fill-rule:nonzero;stroke:rgb(133,52,10);stroke-width:1.11px;"/>
        </g>
        <g id="ray110" serif:id="ray1" transform="matrix(-0.117213,-0.117213,0.117213,-0.117213,108.914,133.016)">
            <path d="M396.84,251.31L425.294,313.302C425.294,313.302 425.784,314.487 426.574,314.161C427.364,313.834 426.873,312.649 426.873,312.649L403.158,248.693M402.478,272.813C402.131,282.241 407.93,287.426 407.172,295.845C406.415,304.265 411.039,309.025 412.112,312.299C413.185,315.573 410.952,317.531 411.914,317.997C412.877,318.463 414.984,315.877 414.297,311.222C413.61,306.567 410.077,305.185 410.907,294.902C411.737,284.619 406.701,282.224 407.927,272.844" style="fill:rgb(246,180,14);fill-rule:nonzero;stroke:rgb(133,52,10);stroke-width:1.11px;"/>
        </g>
        <g id="ray111" serif:id="ray1" transform="matrix(-0.0634352,-0.153146,0.153146,-0.0634352,78.4192,133.945)">
            <path d="M396.84,251.31L425.294,313.302C425.294,313.302 425.784,314.487 426.574,314.161C427.364,313.834 426.873,312.649 426.873,312.649L403.158,248.693M402.478,272.813C402.131,282.241 407.93,287.426 407.172,295.845C406.415,304.265 411.039,309.025 412.112,312.299C413.185,315.573 410.952,317.531 411.914,317.997C412.877,318.463 414.984,315.877 414.297,311.222C413.61,306.567 410.077,305.185 410.907,294.902C411.737,284.619 406.701,282.224 407.927,272.844" style="fill:rgb(246,180,14);fill-rule:nonzero;stroke:rgb(133,52,10);stroke-width:1.11px;"/>
        </g>
        <g id="ray28" serif:id="ray2" transform="matrix(-0.165764,-1.26928e-16,1.26928e-16,-0.165764,157.637,98.269)">
            <path d="M404.31,274.41C404.763,283.464 409.897,287.473 408.889,295.724C411.102,289.199 405.765,284.141 406.069,274.504M398.42,250.747L417.907,293.324L401.578,249.437" style="fill:rgb(133,52,10);fill-rule:nonzero;"/>
        </g>
        <g id="ray29" serif:id="ray2" transform="matrix(-0.153146,-0.0634352,0.0634352,-0.153146,136.731,120.489)">
            <path d="M404.31,274.41C404.763,283.464 409.897,287.473 408.889,295.724C411.102,289.199 405.765,284.141 406.069,274.504M398.42,250.747L417.907,293.324L401.578,249.437" style="fill:rgb(133,52,10);fill-rule:nonzero;"/>
        </g>
        <g id="ray210" serif:id="ray2" transform="matrix(-0.117213,-0.117213,0.117213,-0.117213,108.914,133.016)">
            <path d="M404.31,274.41C404.763,283.464 409.897,287.473 408.889,295.724C411.102,289.199 405.765,284.141 406.069,274.504M398.42,250.747L417.907,293.324L401.578,249.437" style="fill:rgb(133,52,10);fill-rule:nonzero;"/>
        </g>
        <g id="ray211" serif:id="ray2" transform="matrix(-0.0634352,-0.153146,0.153146,-0.0634352,78.4192,133.945)">
            <path d="M404.31,274.41C404.763,283.464 409.897,287.473 408.889,295.724C411.102,289.199 405.765,284.141 406.069,274.504M398.42,250.747L417.907,293.324L401.578,249.437" style="fill:rgb(133,52,10);fill-rule:nonzero;"/>
        </g>
        <g id="ray112" serif:id="ray1" transform="matrix(1.16778e-16,-0.165764,0.165764,1.16778e-16,49.8906,123.134)">
            <path d="M396.84,251.31L425.294,313.302C425.294,313.302 425.784,314.487 426.574,314.161C427.364,313.834 426.873,312.649 426.873,312.649L403.158,248.693M402.478,272.813C402.131,282.241 407.93,287.426 407.172,295.845C406.415,304.265 411.039,309.025 412.112,312.299C413.185,315.573 410.952,317.531 411.914,317.997C412.877,318.463 414.984,315.877 414.297,311.222C413.61,306.567 410.077,305.185 410.907,294.902C411.737,284.619 406.701,282.224 407.927,272.844" style="fill:rgb(246,180,14);fill-rule:nonzero;stroke:rgb(133,52,10);stroke-width:1.11px;"/>
        </g>
        <g id="ray113" serif:id="ray1" transform="matrix(0.0634352,-0.153146,0.153146,0.0634352,27.671,102.228)">
            <path d="M396.84,251.31L425.294,313.302C425.294,313.302 425.784,314.487 426.574,314.161C427.364,313.834 426.873,312.649 426.873,312.649L403.158,248.693M402.478,272.813C402.131,282.241 407.93,287.426 407.172,295.845C406.415,304.265 411.039,309.025 412.112,312.299C413.185,315.573 410.952,317.531 411.914,317.997C412.877,318.463 414.984,315.877 414.297,311.222C413.61,306.567 410.077,305.185 410.907,294.902C411.737,284.619 406.701,282.224 407.927,272.844" style="fill:rgb(246,180,14);fill-rule:nonzero;stroke:rgb(133,52,10);stroke-width:1.11px;"/>
        </g>
        <g id="ray114" serif:id="ray1" transform="matrix(0.117213,-0.117213,0.117213,0.117213,15.1432,74.4099)">
            <path d="M396.84,251.31L425.294,313.302C425.294,313.302 425.784,314.487 426.574,314.161C427.364,313.834 426.873,312.649 426.873,312.649L403.158,248.693M402.478,272.813C402.131,282.241 407.93,287.426 407.172,295.845C406.415,304.265 411.039,309.025 412.112,312.299C413.185,315.573 410.952,317.531 411.914,317.997C412.877,318.463 414.984,315.877 414.297,311.222C413.61,306.567 410.077,305.185 410.907,294.902C411.737,284.619 406.701,282.224 407.927,272.844" style="fill:rgb(246,180,14);fill-rule:nonzero;stroke:rgb(133,52,10);stroke-width:1.11px;"/>
        </g>
        <g id="ray115" serif:id="ray1" transform="matrix(0.153146,-0.0634352,0.0634352,0.153146,14.2144,43.9155)">
            <path d="M396.84,251.31L425.294,313.302C425.294,313.302 425.784,314.487 426.574,314.161C427.364,313.834 426.873,312.649 426.873,312.649L403.158,248.693M402.478,272.813C402.131,282.241 407.93,287.426 407.172,295.845C406.415,304.265 411.039,309.025 412.112,312.299C413.185,315.573 410.952,317.531 411.914,317.997C412.877,318.463 414.984,315.877 414.297,311.222C413.61,306.567 410.077,305.185 410.907,294.902C411.737,284.619 406.701,282.224 407.927,272.844" style="fill:rgb(246,180,14);fill-rule:nonzero;stroke:rgb(133,52,10);stroke-width:1.11px;"/>
        </g>
        <g id="ray212" serif:id="ray2" transform="matrix(1.16778e-16,-0.165764,0.165764,1.16778e-16,49.8906,123.134)">
            <path d="M404.31,274.41C404.763,283.464 409.897,287.473 408.889,295.724C411.102,289.199 405.765,284.141 406.069,274.504M398.42,250.747L417.907,293.324L401.578,249.437" style="fill:rgb(133,52,10);fill-rule:nonzero;"/>
        </g>
        <g id="ray213" serif:id="ray2" transform="matrix(0.0634352,-0.153146,0.153146,0.0634352,27.671,102.228)">
            <path d="M404.31,274.41C404.763,283.464 409.897,287.473 408.889,295.724C411.102,289.199 405.765,284.141 406.069,274.504M398.42,250.747L417.907,293.324L401.578,249.437" style="fill:rgb(133,52,10);fill-rule:nonzero;"/>
        </g>
        <g id="ray214" serif:id="ray2" transform="matrix(0.117213,-0.117213,0.117213,0.117213,15.1432,74.4099)">
            <path d="M404.31,274.41C404.763,283.464 409.897,287.473 408.889,295.724C411.102,289.199 405.765,284.141 406.069,274.504M398.42,250.747L417.907,293.324L401.578,249.437" style="fill:rgb(133,52,10);fill-rule:nonzero;"/>
        </g>
        <g id="ray215" serif:id="ray2" transform="matrix(0.153146,-0.0634352,0.0634352,0.153146,14.2144,43.9155)">
            <path d="M404.31,274.41C404.763,283.464 409.897,287.473 408.889,295.724C411.102,289.199 405.765,284.141 406.069,274.504M398.42,250.747L417.907,293.324L401.578,249.437" style="fill:rgb(133,52,10);fill-rule:nonzero;"/>
        </g>
        <g transform="matrix(0.165764,0,0,0.165764,25.026,15.3869)">
            <circle cx="400" cy="250" r="27.778" style="fill:rgb(246,180,14);stroke:rgb(133,52,10);stroke-width:1.5px;"/>
        </g>
        <g id="loweyecontour" transform="matrix(0.165764,0,0,0.165764,25.026,15.3869)">
            <path d="M409.47,244.06C407.573,244.06 405.757,244.882 404.689,246.591C406.826,248.514 411.545,248.723 414.751,246.372C413.363,244.877 411.366,244.06 409.47,244.06L409.47,244.06ZM409.439,244.498C411.285,244.464 413.011,245.312 413.251,246.154C411.115,248.504 407.701,248.3 405.564,246.591C406.499,245.096 408.003,244.524 409.439,244.497L409.439,244.498Z" style="fill:rgb(132,53,17);fill-rule:nonzero;"/>
        </g>
        <g id="uppalpebra" transform="matrix(-0.165764,0,0,0.165764,157.679,15.3869)">
            <path d="M390.42,242.74C393.197,242.74 393.839,243.382 395.121,244.45C396.404,245.518 397.044,245.304 397.257,245.518C397.47,245.733 397.257,246.372 396.831,246.158C396.404,245.944 395.548,245.518 394.268,244.45C392.984,243.38 391.704,243.381 390.421,243.381C386.575,243.381 384.438,246.586 384.012,246.372C383.585,246.158 386.149,242.74 390.421,242.74L390.42,242.74Z" style="fill:rgb(133,52,10);fill-rule:nonzero;"/>
        </g>
        <g id="eyebrow_nose" transform="matrix(-0.165764,0,0,0.165764,157.679,15.3869)">
            <path d="M382.73,244.02C387.645,239.747 393.84,239.105 397.26,242.311C398.097,243.432 398.633,244.63 398.853,245.881C399.284,248.314 398.523,250.943 396.617,253.637C396.832,253.636 397.26,253.849 397.474,254.064C399.17,250.82 399.77,247.487 399.214,244.318C399.068,243.49 398.84,242.675 398.544,241.882C393.843,238.037 387.434,237.61 382.733,244.02L382.73,244.02Z" style="fill:rgb(133,52,10);fill-rule:nonzero;"/>
        </g>
        <g id="pupil" transform="matrix(0.165764,0,0,0.165764,28.1526,15.3869)">
            <circle cx="390.54" cy="246.15" r="1.923" style="fill:rgb(133,52,10);"/>
        </g>
        <g id="lowpalpebra" transform="matrix(-0.165764,0,0,0.165764,157.679,15.3869)">
            <path d="M385.29,247.44C388.923,250.218 392.555,250.004 394.692,248.722C396.828,247.44 396.828,247.013 396.402,247.013C395.975,247.013 395.549,247.44 393.838,248.294C392.128,249.15 389.565,249.15 385.292,247.44L385.29,247.44Z" style="fill:rgb(133,52,10);fill-rule:nonzero;"/>
        </g>
        <g transform="matrix(0.165764,0,0,0.165764,25.026,15.3869)">
            <path d="M395.75,253.84C394.837,254.007 394.188,254.817 394.188,255.746C394.188,256.808 395.065,257.652 396.125,257.652C396.752,257.652 397.328,257.356 397.688,256.84C398.427,257.396 399.452,257.455 400,257.465C400.084,257.467 400.193,257.465 400.25,257.465C400.798,257.455 401.823,257.396 402.563,256.84C402.923,257.356 403.498,257.652 404.125,257.652C405.185,257.652 406.063,256.808 406.063,255.746C406.063,254.817 405.413,254.007 404.5,253.84C405.013,254.021 405.344,254.516 405.344,255.059C405.344,255.766 404.773,256.34 404.063,256.34C403.382,256.34 402.821,255.8 402.781,255.121C402.573,255.538 401.747,256.776 400.125,256.84C398.503,256.776 397.678,255.538 397.469,255.121C397.429,255.8 396.868,256.34 396.188,256.34C395.478,256.34 394.907,255.766 394.907,255.059C394.907,254.517 395.237,254.021 395.75,253.84L395.75,253.84Z" style="fill:rgb(133,52,10);fill-rule:nonzero;"/>
        </g>
        <g transform="matrix(0.165764,0,0,0.165764,25.026,15.3869)">
            <path d="M397.84,259.53C395.702,259.53 394.857,261.467 392.934,262.749C394.002,262.322 394.843,261.479 396.34,260.624C397.836,259.769 399.112,260.811 399.965,260.811L399.996,260.811C400.849,260.811 402.125,259.77 403.621,260.624C405.118,261.48 405.99,262.322 407.059,262.749C405.135,261.467 404.259,259.53 402.121,259.53C401.695,259.53 400.85,259.761 399.996,260.186L399.965,260.186C399.112,259.76 398.267,259.53 397.84,259.53Z" style="fill:rgb(133,52,10);fill-rule:nonzero;"/>
        </g>
        <g transform="matrix(0.165764,0,0,0.165764,25.026,15.3869)">
            <path d="M397.12,262.06C396.276,262.097 395.16,262.267 393.558,262.748C397.405,261.893 398.254,263.185 399.964,263.185L399.995,263.185C401.705,263.185 402.554,261.893 406.401,262.748C402.127,261.466 401.277,262.31 399.995,262.31L399.964,262.31C399.162,262.31 398.527,261.998 397.12,262.06L397.12,262.06Z" style="fill:rgb(133,52,10);fill-rule:nonzero;"/>
        </g>
        <g transform="matrix(0.165764,0,0,0.165764,25.026,15.3869)">
            <path d="M393.75,262.72C393.502,262.723 393.231,262.725 392.938,262.751C397.426,263.179 395.268,265.751 399.969,265.751L400,265.751C404.701,265.751 402.574,263.179 407.062,262.751C402.362,262.325 403.848,265.095 400,265.095L399.969,265.095C396.361,265.095 397.473,262.674 393.75,262.72L393.75,262.72Z" style="fill:rgb(133,52,10);fill-rule:nonzero;"/>
        </g>
        <g transform="matrix(0.165764,0,0,0.165764,25.026,15.3869)">
            <path d="M403.85,269.66C403.85,267.537 402.127,265.814 400.004,265.814C397.88,265.814 396.157,267.537 396.157,269.66C396.58,267.879 398.174,266.621 400.004,266.621C401.837,266.621 403.428,267.879 403.85,269.66Z" style="fill:rgb(133,52,10);fill-rule:nonzero;"/>
        </g>
        <g id="eyebrow_nose1" serif:id="eyebrow_nose" transform="matrix(0.165764,0,0,0.165764,25.026,15.3869)">
            <path d="M382.73,244.02C387.645,239.747 393.84,239.105 397.26,242.311C398.097,243.432 398.633,244.63 398.853,245.881C399.284,248.314 398.523,250.943 396.617,253.637C396.832,253.636 397.26,253.849 397.474,254.064C399.17,250.82 399.77,247.487 399.214,244.318C399.068,243.49 398.84,242.675 398.544,241.882C393.843,238.037 387.434,237.61 382.733,244.02L382.73,244.02Z" style="fill:rgb(133,52,10);fill-rule:nonzero;"/>
        </g>
        <g id="uppalpebra1" serif:id="uppalpebra" transform="matrix(0.165764,0,0,0.165764,25.026,15.3869)">
            <path d="M390.42,242.74C393.197,242.74 393.839,243.382 395.121,244.45C396.404,245.518 397.044,245.304 397.257,245.518C397.47,245.733 397.257,246.372 396.831,246.158C396.404,245.944 395.548,245.518 394.268,244.45C392.984,243.38 391.704,243.381 390.421,243.381C386.575,243.381 384.438,246.586 384.012,246.372C383.585,246.158 386.149,242.74 390.421,242.74L390.42,242.74Z" style="fill:rgb(133,52,10);fill-rule:nonzero;"/>
        </g>
        <g id="loweyecontour1" serif:id="loweyecontour" transform="matrix(0.165764,0,0,0.165764,21.8464,15.3869)">
            <path d="M409.47,244.06C407.573,244.06 405.757,244.882 404.689,246.591C406.826,248.514 411.545,248.723 414.751,246.372C413.363,244.877 411.366,244.06 409.47,244.06L409.47,244.06ZM409.439,244.498C411.285,244.464 413.011,245.312 413.251,246.154C411.115,248.504 407.701,248.3 405.564,246.591C406.499,245.096 408.003,244.524 409.439,244.497L409.439,244.498Z" style="fill:rgb(132,53,17);fill-rule:nonzero;"/>
        </g>
        <g id="pupil1" serif:id="pupil" transform="matrix(0.165764,0,0,0.165764,25.026,15.3869)">
            <circle cx="390.54" cy="246.15" r="1.923" style="fill:rgb(133,52,10);"/>
        </g>
        <g id="lowpalpebra1" serif:id="lowpalpebra" transform="matrix(0.165764,0,0,0.165764,25.026,15.3869)">
            <path d="M385.29,247.44C388.923,250.218 392.555,250.004 394.692,248.722C396.828,247.44 396.828,247.013 396.402,247.013C395.975,247.013 395.549,247.44 393.838,248.294C392.128,249.15 389.565,249.15 385.292,247.44L385.29,247.44Z" style="fill:rgb(133,52,10);fill-rule:nonzero;"/>
        </g>
    </g>
    <g id="Artboard1" transform="matrix(0.2421,0,0,0.2421,182.632,20.0687)">
        <rect x="0" y="0" width="512" height="512" style="fill:none;"/>
    </g>
    <g transform="matrix(6.10011,0,0,6.10011,-807.581,-224.14)">
        <g id="Artboard11" serif:id="Artboard1" transform="matrix(0.272715,0,0,0.272715,156.648,-83.9304)">
            <rect x="0" y="0" width="512" height="512" style="fill:none;"/>
        </g>
    </g>
    <g transform="matrix(1,0,0,1,5.63779,47.716)">
        <text x="156.363px" y="60.416px" style="font-family:'Helvetica-Bold', 'Helvetica';font-weight:700;font-size:73.201px;fill:rgb(116,172,223);">+</text>
    </g>
    <g transform="matrix(0.830572,0,0,0.830572,42.4586,77.5443)">
        <g transform="matrix(0.114825,0,0,0.163298,214.536,16.9322)">
            <path d="M125.893,50.944C125.893,30.931 102.786,14.683 74.324,14.683C45.862,14.683 22.755,30.931 22.755,50.944L22.755,462.873C22.755,482.887 45.862,499.135 74.324,499.135C102.786,499.135 125.893,482.887 125.893,462.873L125.893,50.944Z" style="fill:rgb(245,103,51);"/>
        </g>
        <g transform="matrix(0.114825,0,0,0.163298,286.067,16.9322)">
            <path d="M125.893,50.944C125.893,30.931 102.786,14.683 74.324,14.683C45.862,14.683 22.755,30.931 22.755,50.944L22.755,462.873C22.755,482.887 45.862,499.135 74.324,499.135C102.786,499.135 125.893,482.887 125.893,462.873L125.893,50.944Z" style="fill:rgb(245,103,51);"/>
        </g>
        <g transform="matrix(0.114825,0,0,0.0816492,232.419,48.6979)">
            <path d="M125.893,87.206C125.893,47.179 102.786,14.683 74.324,14.683C45.862,14.683 22.755,47.179 22.755,87.206L22.755,426.612C22.755,466.639 45.862,499.135 74.324,499.135C102.786,499.135 125.893,466.639 125.893,426.612L125.893,87.206Z" style="fill:rgb(245,103,51);"/>
        </g>
        <g transform="matrix(0.114825,0,0,0.0816492,250.301,39.8158)">
            <path d="M125.893,87.206C125.893,47.179 102.786,14.683 74.324,14.683C45.862,14.683 22.755,47.179 22.755,87.206L22.755,426.612C22.755,466.639 45.862,499.135 74.324,499.135C102.786,499.135 125.893,466.639 125.893,426.612L125.893,87.206Z" style="fill:rgb(245,103,51);"/>
        </g>
        <g transform="matrix(0.114825,0,0,0.0816492,268.184,48.6979)">
            <path d="M125.893,87.206C125.893,47.179 102.786,14.683 74.324,14.683C45.862,14.683 22.755,47.179 22.755,87.206L22.755,426.612C22.755,466.639 45.862,499.135 74.324,499.135C102.786,499.135 125.893,466.639 125.893,426.612L125.893,87.206Z" style="fill:rgb(245,103,51);"/>
        </g>
    </g>
    <g transform="matrix(0.827102,0,0,0.827102,215.749,4.59082)">
        <circle cx="49.986" cy="53.666" r="47.572" style="fill:rgb(116,172,223);"/>
    </g>
    <g id="circle2" transform="matrix(0.793668,0,0,0.793668,217.409,9.29471)">
        <circle cx="0.5" cy="0.5" r="0.48" style="fill:rgb(144,210,237);"/>
    </g>
    <g id="g8" transform="matrix(0.616285,0,0,0.616285,227.207,11.8958)">
        <g id="svg6">
            <path id="path4" d="M97.8,63.2C96.1,60.1 92.7,56.6 86,57.4L70.6,59.3L70.6,42.3C70.6,39.2 68.1,36.7 65,36.7L60.1,36.7C58.6,36.7 57.2,37.2 56.2,38.1C55.4,35.8 53.2,34.1 50.6,34.1L46.6,34.1C44,34.1 41.9,35.7 41,38C40,37.2 38.7,36.6 37.3,36.6L33,36.6C29.8,36.6 27.1,39.2 27.1,42.5L27.1,45L21.1,29.5C20.1,25.8 16.2,23.5 12.4,24.6C10.6,25.1 9,26.3 8.1,27.9C7.2,29.5 6.9,31.5 7.4,33.3L14.4,58.6C14.7,61.4 18.6,97.9 41.7,97.8L41.8,97.8C66.5,97.8 71.3,84.5 72.2,81L95.1,73.5C96.4,73.2 97.5,72.3 98.1,70.9C99.1,68.6 99,65.2 97.8,63.2ZM60.1,39.1L65,39.1C66.7,39.1 68.1,40.5 68.1,42.2L68.1,62.7C68.1,64.8 66.4,66.5 64.3,66.5L60.3,66.5C58.2,66.5 56.5,64.8 56.5,62.7L56.5,42.7C56.5,40.7 58.1,39.1 60.1,39.1ZM43.1,40.1C43.1,38.2 44.7,36.6 46.6,36.6L50.6,36.6C52.5,36.6 54.1,38.2 54.1,40.1L54.1,63.8C54.1,65.3 52.9,66.5 51.4,66.5L46.3,66.5C44.6,66.5 43.2,65.1 43.2,63.4L43.2,40.1L43.1,40.1ZM29.6,42.5C29.6,40.7 31.1,39.1 33,39.1L37.2,39.1C39,39.1 40.6,40.6 40.6,42.5L40.6,61.7C40.6,63 39.6,64 38.3,64L32.6,64C31,64 29.6,62.7 29.6,61L29.6,42.5ZM95.8,69.9C95.5,70.6 95,71 94.5,71.1L70,79.1L69.9,79.9C69.9,80.1 67.8,95.3 41.9,95.4L41.8,95.4C20.6,95.4 17,58.7 17,58.3L9.9,32.7C9.6,31.5 9.7,30.3 10.4,29.2C11,28.1 12,27.4 13.2,27.1C15.7,26.4 18.2,27.9 18.8,30.3L26.6,50.4C26.7,50.7 26.9,50.9 27.2,51L27.2,61C27.2,64 29.6,66.5 32.7,66.5L38.4,66.5C39.4,66.5 40.4,66.2 41.1,65.6C42,67.6 43.9,69 46.2,69L51.3,69C53.1,69 54.6,68.1 55.5,66.8C56.7,68.1 58.4,69 60.3,69L64.3,69C67.8,69 70.6,66.2 70.6,62.7L70.6,61.7L86.3,59.8C90.6,59.3 93.7,60.9 95.7,64.4C96.4,65.8 96.5,68.3 95.8,69.9Z" style="fill-rule:nonzero;"/>
        </g>
    </g>
    <g id="path68" transform="matrix(0.793668,0,0,0.793668,217.409,9.29471)">
        <path d="M42.444,76.888C39.548,76.31 37.609,75.194 35.122,72.677C31.073,68.577 27.925,61.249 26.28,52.096C25.817,49.519 24.281,43.267 22.867,38.202C21.453,33.137 20.297,28.347 20.297,27.557C20.297,25.918 21.86,24.364 23.508,24.364C25.413,24.364 26.484,26.055 29.414,33.686C30.98,37.765 32.525,41.655 32.847,42.332C33.226,43.13 33.432,45.084 33.432,47.889C33.432,52.879 34.011,54.099 36.735,54.856C38.464,55.336 41.553,55.371 43.136,54.927C43.914,54.71 44.431,54.92 45.328,55.817C46.424,56.913 46.739,56.992 50.043,56.992C52.543,56.992 53.856,56.8 54.514,56.339C55.352,55.753 55.57,55.753 56.705,56.339C58.363,57.196 63.152,57.202 64.802,56.349C66.131,55.662 67.331,53.769 67.331,52.36C67.331,51.329 67.437,51.301 75.097,50.379C81.958,49.553 83.465,49.808 85.512,52.139C86.546,53.317 86.822,54.019 86.822,55.471C86.822,56.599 86.573,57.518 86.179,57.845C85.826,58.138 81.32,59.745 76.166,61.414L66.796,64.45L65.94,66.744C64.286,71.179 59.338,74.882 53.268,76.229C49.696,77.021 44.652,77.328 42.444,76.888L42.444,76.888Z" style="fill:white;fill-rule:nonzero;"/>
    </g>
    <g id="path70" transform="matrix(0.793668,0,0,0.793668,217.409,9.29471)">
        <path d="M57.402,53.882L56.314,52.793L56.314,44.28C56.314,35.806 56.318,35.762 57.354,34.727C58.221,33.859 58.806,33.686 60.874,33.686C65.106,33.686 65,33.42 65,44.019C65,54.689 65.072,54.494 61.017,54.788C58.743,54.952 58.383,54.862 57.402,53.882Z" style="fill:white;fill-rule:nonzero;"/>
    </g>
    <g id="path72" transform="matrix(0.793668,0,0,0.793668,217.409,9.29471)">
        <path d="M47.086,54.213C46.158,53.563 46.144,53.41 46.144,43.474C46.144,31.652 46.022,31.992 50.285,31.992C54.234,31.992 54.195,31.875 54.195,43.714C54.195,53.402 54.18,53.564 53.253,54.213C52.702,54.599 51.422,54.873 50.169,54.873C48.917,54.873 47.637,54.599 47.086,54.213Z" style="fill:white;fill-rule:nonzero;"/>
    </g>
    <g id="path74" transform="matrix(0.793668,0,0,0.793668,217.409,9.29471)">
        <path d="M36.217,52.088C35.658,51.53 35.551,50.128 35.551,43.402C35.551,33.874 35.629,33.686 39.576,33.686C43.533,33.686 43.602,33.854 43.602,43.559C43.602,49.355 43.454,51.885 43.093,52.246C42.311,53.028 37.036,52.907 36.217,52.088Z" style="fill:white;fill-rule:nonzero;"/>
    </g>
</svg>
