<svg height='100px' width='100px'  fill="#FFFFFF" xmlns="http://www.w3.org/2000/svg" xmlns:xlink="http://www.w3.org/1999/xlink" version="1.1" x="0px" y="0px" viewBox="0 0 100 100" enable-background="new 0 0 100 100" xml:space="preserve"><path d="M94.768,71.286L87.981,59.53l-6.864-27.628c-0.003-0.011-0.008-0.02-0.011-0.031c-0.012-0.043-0.028-0.084-0.043-0.127  c-0.023-0.065-0.046-0.13-0.076-0.191c-0.019-0.039-0.04-0.076-0.062-0.114c-0.034-0.06-0.07-0.118-0.11-0.173  c-0.026-0.036-0.053-0.07-0.081-0.104c-0.044-0.053-0.092-0.102-0.142-0.149c-0.031-0.03-0.062-0.06-0.095-0.088  c-0.062-0.051-0.129-0.097-0.198-0.14c-0.026-0.016-0.05-0.036-0.077-0.051c-0.099-0.055-0.204-0.101-0.313-0.138  c-0.006-0.002-0.01-0.005-0.016-0.007l-23.211-7.531c0.002-0.074,0.011-0.147,0.011-0.222c0-3.045-2.048-5.616-4.838-6.42V9.514  c0-1.021-0.828-1.849-1.849-1.849s-1.849,0.828-1.849,1.849v6.902c-1.521,0.439-2.823,1.399-3.69,2.68l-23.206-7.529  c-0.022-0.007-0.045-0.008-0.068-0.015c-0.082-0.023-0.166-0.043-0.252-0.054c-0.044-0.006-0.087-0.008-0.13-0.011  c-0.04-0.003-0.08-0.01-0.121-0.01c-0.03,0-0.059,0.006-0.09,0.008c-0.046,0.002-0.091,0.006-0.136,0.012  c-0.07,0.009-0.139,0.022-0.207,0.038c-0.04,0.01-0.08,0.018-0.119,0.031c-0.074,0.023-0.145,0.053-0.216,0.085  c-0.031,0.014-0.062,0.025-0.092,0.041c-0.095,0.05-0.186,0.107-0.271,0.173c-0.007,0.005-0.013,0.01-0.019,0.016  c-0.082,0.065-0.158,0.138-0.228,0.217c-0.026,0.029-0.047,0.061-0.071,0.091c-0.046,0.058-0.09,0.118-0.129,0.182  c-0.022,0.036-0.041,0.074-0.061,0.112c-0.034,0.066-0.064,0.134-0.09,0.205c-0.009,0.024-0.022,0.044-0.03,0.068  c-0.006,0.018-0.007,0.037-0.012,0.055c-0.007,0.024-0.018,0.046-0.024,0.07l-6.864,27.629L5.248,52.263  c-0.33,0.572-0.33,1.277,0,1.849l6.922,11.99c0.33,0.572,0.941,0.924,1.601,0.924h13.844c0.66,0,1.271-0.352,1.601-0.924  l6.922-11.99c0.33-0.572,0.33-1.277,0-1.849L29.35,40.507L23.29,16.111l20.043,6.503c-0.002,0.074-0.011,0.147-0.011,0.222  c0,3.045,2.048,5.616,4.838,6.421v59.381H32.076c-1.021,0-1.849,0.828-1.849,1.849c0,1.021,0.828,1.849,1.849,1.849H67.94  c1.021,0,1.849-0.828,1.849-1.849c0-1.021-0.828-1.849-1.849-1.849H51.857V29.256c1.521-0.439,2.823-1.399,3.69-2.68l21.567,6.998  l-6.448,25.953l-6.788,11.759c-0.33,0.572-0.33,1.277,0,1.849L70.8,85.124c0.33,0.572,0.94,0.924,1.601,0.924h13.844  c0.661,0,1.271-0.352,1.601-0.924l6.922-11.989C95.098,72.563,95.098,71.858,94.768,71.286z M26.547,63.328H14.838L8.983,53.187  l5.855-10.14h11.709l5.855,10.14L26.547,63.328z M16.132,39.349l4.56-18.357l4.56,18.357H16.132z M50.008,25.825  c-1.648,0-2.989-1.341-2.989-2.989c0-1.648,1.341-2.989,2.989-2.989s2.989,1.341,2.989,2.989  C52.997,24.484,51.656,25.825,50.008,25.825z M79.323,40.015l4.56,18.357h-9.121L79.323,40.015z M85.177,82.351H73.468l-5.854-10.14  l5.854-10.141h11.709l5.854,10.141L85.177,82.351z M26.44,52.932c0,1.021-0.828,1.849-1.849,1.849h-7.148  c-1.021,0-1.849-0.828-1.849-1.849s0.828-1.849,1.849-1.849h7.148C25.613,51.083,26.44,51.911,26.44,52.932z M84.746,72.739  c0,1.021-0.828,1.849-1.849,1.849h-1.725v1.725c0,1.021-0.828,1.849-1.849,1.849c-1.021,0-1.849-0.828-1.849-1.849v-1.725h-1.726  c-1.021,0-1.849-0.828-1.849-1.849c0-1.021,0.828-1.849,1.849-1.849h1.726v-1.726c0-1.021,0.828-1.849,1.849-1.849  c1.021,0,1.849,0.828,1.849,1.849v1.726h1.725C83.918,70.89,84.746,71.718,84.746,72.739z"></path></svg>