<svg height='100px' width='100px'  fill="#FFFFFF" xmlns="http://www.w3.org/2000/svg" xmlns:xlink="http://www.w3.org/1999/xlink" version="1.1" x="0px" y="0px" viewBox="0 0 100 100" enable-background="new 0 0 100 100" xml:space="preserve"><path d="M66.158,20.24c4.15-0.247,7.314-3.811,7.067-7.961c-0.247-4.15-3.811-7.314-7.96-7.067c-4.15,0.247-7.314,3.811-7.067,7.961  S62.008,20.487,66.158,20.24z M65.456,8.433c2.367-0.141,4.408,1.671,4.549,4.038c0.141,2.367-1.671,4.408-4.038,4.549  c-2.368,0.141-4.408-1.671-4.549-4.038S63.088,8.573,65.456,8.433z M88.202,26.59l-8.437,12.764l-0.71,1.091l-0.008-0.005  l-0.003,0.005l-0.71-0.469l-11.947-7.771c-0.166,0.553-0.39,1.098-0.676,1.626l-10.614,19.61c-0.01,0.019-0.017,0.038-0.027,0.057  c-0.01,0.019-0.023,0.035-0.033,0.053L55,53.622l-0.003-0.002c-0.311,0.552-0.675,1.054-1.08,1.509l13.093,12.925l-0.028,0.029  l0.028,0.005l-5.127,26.807l-8.506-1.627l4.178-21.848L45.686,59.703l-0.007,0.012l-0.953-0.96l-3.222-3.18l0.004-0.005  c-2.664-2.586-3.429-6.694-1.638-10.137l-0.009-0.005l9.749-18.013h-6.498l-7.212,10.912c-0.55,0.851-1.503,1.418-2.592,1.418  c-1.706,0-3.089-1.383-3.089-3.089c0-0.658,0.209-1.266,0.56-1.767l9.081-13.739v-0.024h18.422v0.007  c1.34,0.021,2.695,0.35,3.955,1.032c0.316,0.171,0.611,0.363,0.896,0.566l14.144,9.2l5.728-8.666  c0.537-0.91,1.518-1.528,2.651-1.528c1.706,0,3.089,1.383,3.089,3.089c0,0.654-0.206,1.258-0.552,1.757L88.202,26.59z   M40.559,56.083l4.564,4.599l-7.42,12.924l-0.018-0.011v0.011H11.026v-8.654h21.225l6.526-11.368  C39.221,54.494,39.816,55.339,40.559,56.083z"></path></svg>