<svg height='100px' width='100px'  fill="#FFFFFF" xmlns="http://www.w3.org/2000/svg" xmlns:xlink="http://www.w3.org/1999/xlink" version="1.1" x="0px" y="0px" viewBox="0 0 100 100" enable-background="new 0 0 100 100" xml:space="preserve"><path d="M73.335,41.193c3.276-0.195,5.774-3.008,5.579-6.284s-3.008-5.774-6.284-5.579c-3.276,0.195-5.774,3.008-5.579,6.284  C67.245,38.89,70.059,41.388,73.335,41.193z M72.781,31.872c1.869-0.111,3.48,1.319,3.591,3.188c0.111,1.869-1.319,3.48-3.188,3.591  c-1.869,0.111-3.48-1.319-3.591-3.188C69.481,33.594,70.912,31.983,72.781,31.872z M92.154,40.34l0.002,0.003l-1.486,0.753  L90.662,41.1l-9.629,4.879l0.833,15.799c0.023,0.427-0.004,0.854-0.078,1.275l-1.899,10.706l9.759,15.662l-6.063,3.898  L72.869,76.123l0.041-0.036l-0.079-0.014l1.643-9.094l-1.48,0.088l-4.172,10.549l-2.119,17.022l-6.493-0.808l2.217-17.804  l-0.01-0.004l4.796-12.126l-0.977-16.44l-9.459-4.345l-6.833,5.745l-0.006-0.007c-0.548,0.496-1.314,0.757-2.146,0.582  c-0.972-0.204-1.746-1.03-1.892-2.012c-0.139-0.931,0.257-1.768,0.916-2.283l-0.005-0.006l9.211-7.723l11.534,5.298l10.44-0.643  l10.502-5.321l-4.205-8.463l0.002-0.001c-0.304-0.582-0.408-1.285-0.096-2.051c0.283-0.694,0.889-1.244,1.616-1.428  c1.233-0.311,2.354,0.32,2.828,1.317l0.01-0.005l6.35,12.78L92.154,40.34z M30.105,41.681c3.282-0.009,5.935-2.677,5.926-5.959  c-0.009-3.282-2.677-5.935-5.959-5.926c-3.282,0.009-5.935,2.677-5.926,5.959C24.155,39.037,26.823,41.69,30.105,41.681z   M30.078,32.343c1.872-0.005,3.4,1.514,3.405,3.386c0.005,1.872-1.514,3.4-3.386,3.405c-1.872,0.005-3.4-1.514-3.405-3.386  S28.206,32.348,30.078,32.343z M34.526,72.425L45.87,90.667l-6.063,3.898L29.114,77.367l-2.757-9.972L14.96,79.034l-1.469,15.604  l-6.515-0.613L8.66,76.131l0.008,0.001l-0.013-0.012l10.739-10.966V44.808L5.563,25.037l0.007-0.005  c-0.446-0.59-0.637-1.375-0.39-2.189c0.29-0.95,1.18-1.647,2.171-1.707c0.94-0.056,1.739,0.412,2.194,1.114l0.006-0.004  l14.314,20.488h4.54l0.021,0.023c1.618,0.149,3.008,1.07,3.808,2.39l0.003-0.002l10.527,13.96l-0.003,0.002l1.16,10.467  l-0.011,0.001c0.141,1.093-0.458,2.227-1.657,2.635c-0.709,0.241-1.515,0.109-2.13-0.318c-0.684-0.475-0.979-1.125-1.038-1.783  l-0.002,0l-1.015-9.147L32.969,54.2v12.061c0,0.4,0.055,0.798,0.162,1.183L34.526,72.425z M38.833,20.597  c0,5.129,4.172,9.301,9.301,9.301s9.301-4.173,9.301-9.301c0-4.842-3.72-8.828-8.453-9.258V6.304c0-0.469-0.38-0.849-0.849-0.849  s-0.849,0.38-0.849,0.849v5.035C42.553,11.769,38.833,15.755,38.833,20.597z M41.302,17.281h2c-0.16,0.776-0.268,1.601-0.309,2.467  h-2.412C40.679,18.871,40.931,18.042,41.302,17.281z M41.302,23.913c-0.371-0.761-0.623-1.59-0.721-2.467h2.412  c0.042,0.866,0.149,1.691,0.309,2.467H41.302z M42.433,25.611h1.334c0.213,0.61,0.463,1.172,0.748,1.671  C43.724,26.852,43.023,26.281,42.433,25.611z M47.285,27.928c-0.631-0.391-1.239-1.194-1.71-2.317h1.71V27.928z M48.983,27.928  v-2.317h1.71C50.222,26.734,49.615,27.537,48.983,27.928z M51.232,23.913h-2.249v-2.467h2.595  C51.531,22.338,51.408,23.163,51.232,23.913z M54.966,23.913h-2c0.16-0.776,0.268-1.601,0.309-2.467h2.412  C55.589,22.323,55.337,23.152,54.966,23.913z M54.966,17.281c0.371,0.761,0.623,1.59,0.721,2.467h-2.412  c-0.042-0.866-0.149-1.691-0.309-2.467H54.966z M53.836,15.583h-1.333c-0.213-0.61-0.463-1.172-0.748-1.671  C52.545,14.342,53.245,14.913,53.836,15.583z M52.502,25.611h1.333c-0.59,0.67-1.291,1.241-2.081,1.671  C52.039,26.782,52.289,26.221,52.502,25.611z M51.578,19.748h-2.595v-2.467h2.249C51.408,18.031,51.531,18.856,51.578,19.748z   M50.693,15.583h-1.71v-2.317C49.615,13.657,50.222,14.46,50.693,15.583z M47.285,13.266v2.317h-1.71  C46.046,14.46,46.654,13.657,47.285,13.266z M45.037,17.281h2.249v2.467h-2.594C44.738,18.856,44.861,18.031,45.037,17.281z   M47.285,21.446v2.467h-2.249c-0.175-0.75-0.299-1.575-0.346-2.467H47.285z M44.515,13.912c-0.285,0.5-0.534,1.061-0.748,1.671  h-1.334C43.023,14.913,43.724,14.342,44.515,13.912z M48.134,31.211c0.469,0,0.849,0.38,0.849,0.849v2.83  c0,0.469-0.38,0.849-0.849,0.849s-0.849-0.38-0.849-0.849v-2.83C47.285,31.591,47.665,31.211,48.134,31.211z M32.992,20.597  c0-0.469,0.38-0.849,0.849-0.849h2.83c0.469,0,0.849,0.38,0.849,0.849c0,0.469-0.38,0.849-0.849,0.849h-2.83  C33.372,21.446,32.992,21.066,32.992,20.597z M59.598,19.748h2.829c0.469,0,0.849,0.38,0.849,0.849c0,0.469-0.38,0.849-0.849,0.849  h-2.829c-0.469,0-0.849-0.38-0.849-0.849C58.749,20.128,59.128,19.748,59.598,19.748z M37.428,11.09c-0.332-0.331-0.332-0.869,0-1.2  c0.332-0.332,0.869-0.332,1.2,0l2.001,2.001c0.332,0.331,0.332,0.869,0,1.2c-0.166,0.166-0.383,0.249-0.6,0.249  c-0.217,0-0.434-0.083-0.6-0.249L37.428,11.09z M58.842,30.103c0.332,0.331,0.332,0.869,0,1.2c-0.166,0.166-0.383,0.249-0.6,0.249  c-0.217,0-0.434-0.083-0.6-0.249l-2.001-2.001c-0.332-0.331-0.332-0.869,0-1.2c0.332-0.332,0.869-0.332,1.2,0L58.842,30.103z   M40.629,28.102c0.332,0.332,0.332,0.869,0,1.2l-2.001,2.001c-0.166,0.166-0.383,0.249-0.6,0.249c-0.217,0-0.434-0.083-0.6-0.249  c-0.332-0.332-0.332-0.869,0-1.2l2.001-2.001C39.76,27.771,40.298,27.771,40.629,28.102z M55.64,13.091  c-0.332-0.332-0.332-0.869,0-1.2l2.001-2.001c0.332-0.332,0.869-0.332,1.2,0s0.332,0.869,0,1.2l-2.001,2.001  c-0.166,0.166-0.383,0.249-0.6,0.249C56.023,13.34,55.806,13.257,55.64,13.091z"></path></svg>